<?xml version="1.0" encoding="UTF-8" standalone="no"?>
<!-- Generator: Adobe Illustrator 19.1.0, SVG Export Plug-In . SVG Version: 6.00 Build 0)  -->

<svg
   xmlns:dc="http://purl.org/dc/elements/1.1/"
   xmlns:cc="http://creativecommons.org/ns#"
   xmlns:rdf="http://www.w3.org/1999/02/22-rdf-syntax-ns#"
   xmlns:svg="http://www.w3.org/2000/svg"
   xmlns="http://www.w3.org/2000/svg"
   xmlns:sodipodi="http://sodipodi.sourceforge.net/DTD/sodipodi-0.dtd"
   xmlns:inkscape="http://www.inkscape.org/namespaces/inkscape"
   version="1.1"
   id="Lager_1"
   x="0px"
   y="0px"
   width="106.59713"
   height="182.98378"
   viewBox="171 -47.3 106.59713 182.98378"
   xml:space="preserve"
   sodipodi:docname="Bioexcel_symbol.svg"
   inkscape:version="0.92.3 (2405546, 2018-03-11)"><metadata
   id="metadata15"><rdf:RDF><cc:Work
       rdf:about=""><dc:format>image/svg+xml</dc:format><dc:type
         rdf:resource="http://purl.org/dc/dcmitype/StillImage" /><dc:title></dc:title></cc:Work></rdf:RDF></metadata><defs
   id="defs13" /><sodipodi:namedview
   pagecolor="#ffffff"
   bordercolor="#666666"
   borderopacity="1"
   objecttolerance="10"
   gridtolerance="10"
   guidetolerance="10"
   inkscape:pageopacity="0"
   inkscape:pageshadow="2"
   inkscape:window-width="640"
   inkscape:window-height="480"
   id="namedview11"
   showgrid="false"
   fit-margin-top="0"
   fit-margin-left="0"
   fit-margin-right="0"
   fit-margin-bottom="0"
   inkscape:zoom="0.41966761"
   inkscape:cx="117.53937"
   inkscape:cy="-5.1900324"
   inkscape:window-x="0"
   inkscape:window-y="27"
   inkscape:window-maximized="0"
   inkscape:current-layer="Lager_1" />
<style
   type="text/css"
   id="style2">
	.st0{opacity:0.85;fill:#FFA400;enable-background:new    ;}
	.st1{opacity:0.77;fill:#009A44;enable-background:new    ;}
</style>
<ellipse
   class="st0"
   cx="213.37581"
   cy="-26.499996"
   rx="16"
   ry="16.6"
   id="ellipse4"
   style="opacity:0.85;fill:#ffa400;enable-background:new" />
<path
   class="st1"
   d="m 174.77583,-44.2 c 0,0 10.9,30.5 37.4,49.1 26.5,18.6 34.2,27.3 54.5,46.5 14.2,13.4 11.8,32.2 8,46.9 -3.8,14.7 2.8,-16 -20.4,-34.6 -6.4,-5.1 -29.2,-23.3 -51.7,-42.7 -19.9,-17.3 -36.7,-40 -27.8,-65.2 z"
   id="path6"
   inkscape:connector-curvature="0"
   style="opacity:0.76999996;fill:#009a44;enable-background:new" />
<path
   class="st0"
   d="m 256.97583,-47.3 c 0,0 15.8,31.9 -6.3,62.5 -24.5,33.9 -45.9,54.4 -62.1,72.9 -11.3,12.9 -14.9,37.8 -10.2,46.4 4.7,8.6 -20.1,-31.5 1.8,-60.7 16.2,-21.7 43.6,-53.1 60,-73.5 13.2,-16.5 22.4,-22.1 16.8,-47.6 z"
   id="path8"
   inkscape:connector-curvature="0"
   style="opacity:0.85;fill:#ffa400;enable-background:new" />
</svg>